<?xml version="1.0" encoding="utf-8"?>
<!-- Generator: Adobe Illustrator 16.0.0, SVG Export Plug-In . SVG Version: 6.00 Build 0)  -->
<!DOCTYPE svg PUBLIC "-//W3C//DTD SVG 1.1//EN" "http://www.w3.org/Graphics/SVG/1.1/DTD/svg11.dtd">
<svg version="1.1" id="Layer_1" xmlns="http://www.w3.org/2000/svg" xmlns:xlink="http://www.w3.org/1999/xlink" x="0px" y="0px"
	 width="800px" height="800px" viewBox="0 0 800 800" enable-background="new 0 0 800 800" xml:space="preserve">
<defs>
</defs>
<clipPath id="SVGID_2_">
	<use xlink:href="#SVGID_1_"  overflow="visible"/>
</clipPath>
<g clip-path="url(#SVGID_2_)">
	<rect x="101" y="255" fill="none" stroke="#85C446" stroke-width="7" stroke-miterlimit="10" width="585" height="231"/>
</g>
<g clip-path="url(#SVGID_2_)">
	<text transform="matrix(0.9577 0 0 1 129.3735 417.8457)" fill="#28B34B" font-family="'CourierNewPSMT'" font-size="151.2549">&lt;D V/&gt;</text>
</g>
<g clip-path="url(#SVGID_2_)">
	<g>
		<g>
			<defs>
				<rect id="SVGID_3_" x="313.775" y="303.189" width="74.225" height="145.853"/>
			</defs>
			<clipPath id="SVGID_4_">
				<use xlink:href="#SVGID_3_"  overflow="visible"/>
			</clipPath>
		</g>
	</g>
	<g>
		<g>
			<defs>
				<rect id="SVGID_5_" x="313.775" y="303.189" width="74.225" height="145.853"/>
			</defs>
			<clipPath id="SVGID_6_">
				<use xlink:href="#SVGID_5_"  overflow="visible"/>
			</clipPath>
			<path clip-path="url(#SVGID_6_)" fill="#5FBB46" d="M354.207,361.781c-6.742-6.563-14.358-16.395-14.652-31.126
				c3.412,11.993,15.062,29.112,46.395,51.529c0,0-34.392-50.407-22.739-78.656c0,0-6.431-3.467-19.251,5.139
				c0-0.016,0.021-0.037,0.021-0.059c0,0-21.395,14.991-17.814,31.374c0.704,3.243,0.214,7.16-7.227,10.908
				c-1.503,0.737-4.151,1.655-3.449,5.895c0,0,0.718,3.04,2.16,4.185c0.08,0.062,0.161,0.104,0.214,0.16
				c1.852,1.858-1.361,1.326-2.374,1.658c-1.715,0.588-1.754,4.161,0.974,7.299c0,0-4.406,4.631-1.932,8.688
				c0,0,0.604,0.739,3.179,0.372c0,0-1.985,14.563,8.729,14.212c6.293-0.225,20.011-5.65,25.039,2.855
				c0,0,17.03,21.887-3.625,52.345c0,0,23.811-9.219,26.286-37.47C374.141,411.087,381.721,388.563,354.207,361.781L354.207,361.781
				z M354.207,361.781"/>
		</g>
	</g>
	<g>
		<g>
			<defs>
				<rect id="SVGID_7_" x="313.775" y="303.189" width="74.225" height="145.853"/>
			</defs>
			<clipPath id="SVGID_8_">
				<use xlink:href="#SVGID_7_"  overflow="visible"/>
			</clipPath>
		</g>
	</g>
</g>
</svg>
